<svg width="14" height="14" viewBox="0 0 14 14" fill="none" xmlns="http://www.w3.org/2000/svg">
	<g clip-path="url(#clip0_46_758)">
		<path d="M7 0C3.1325 0 0 3.21386 0 7.17763C0 10.3495 2.0055 13.0393 4.78625 13.9876C5.13625 14.0552 5.26458 13.833 5.26458 13.6425C5.26458 13.4721 5.25875 13.0204 5.25583 12.4221C3.30867 12.8549 2.898 11.4591 2.898 11.4591C2.5795 10.6307 2.11925 10.4091 2.11925 10.4091C1.48517 9.9642 2.16825 9.97333 2.16825 9.97333C2.87117 10.0232 3.24042 10.7129 3.24042 10.7129C3.86458 11.8103 4.879 11.4932 5.27917 11.31C5.34217 10.8456 5.52242 10.5297 5.7225 10.3501C4.16792 10.1705 2.534 9.55334 2.534 6.80329C2.534 6.01991 2.80525 5.37957 3.25442 4.87741C3.17567 4.69602 2.93942 3.9662 3.31567 2.97769C3.31567 2.97769 3.90192 2.78535 5.24067 3.7136C5.80067 3.55412 6.39567 3.47499 6.99067 3.47134C7.58567 3.47499 8.18067 3.55412 8.74067 3.7136C10.0707 2.78535 10.6569 2.97769 10.6569 2.97769C11.0332 3.9662 10.7969 4.69602 10.7269 4.87741C11.1732 5.37957 11.4444 6.01991 11.4444 6.80329C11.4444 9.56064 9.80817 10.1675 8.25067 10.344C8.49567 10.5595 8.72317 10.9996 8.72317 11.6722C8.72317 12.6327 8.71442 13.4045 8.71442 13.6376C8.71442 13.8257 8.83692 14.0503 9.19567 13.9785C11.9962 13.0362 14 10.3446 14 7.17763C14 3.21386 10.8657 0 7 0Z" fill="white" />
	</g>
	<defs>
		<clipPath id="clip0_46_758">
			<rect width="14" height="14" fill="white" />
		</clipPath>
	</defs>
</svg>
