<svg xmlns="http://www.w3.org/2000/svg" width="40" height="40" viewBox="0 0 40 40" fill="none">
  <rect width="40" height="40" rx="10" fill="#F8F0FF"/>
  <path d="M9 13.25C9 12.0074 10.0074 11 11.25 11H26.75C27.9926 11 29 12.0074 29 13.25V26.75C29 27.9926 27.9926 29 26.75 29H11.25C10.0074 29 9 27.9926 9 26.75V13.25Z" fill="#6941C6" fill-opacity="0.1"/>
  <path d="M12 16.5C12 15.6716 12.6716 15 13.5 15H24.5C25.3284 15 26 15.6716 26 16.5V23.5C26 24.3284 25.3284 25 24.5 25H13.5C12.6716 25 12 24.3284 12 23.5V16.5Z" fill="#6941C6" fill-opacity="0.1"/>
  <path d="M10 11.5C10 10.6716 10.6716 10 11.5 10H20.5C21.3284 10 22 10.6716 22 11.5V11.5C22 12.3284 21.3284 13 20.5 13H11.5C10.6716 13 10 12.3284 10 11.5V11.5Z" fill="#9E77ED"/>
  <path d="M20 13L13 20M16 13L13 16M20 16L17 19" stroke="#6941C6" stroke-width="2" stroke-linecap="round"/>
  <path d="M25 25L30 29.5" stroke="#6941C6" stroke-width="2" stroke-linecap="round"/>
  <circle cx="25.5" cy="25.5" r="1.5" fill="#6941C6"/>
  <path d="M30 14.5H26.5C26.2239 14.5 26 14.7239 26 15V18.5C26 18.7761 26.2239 19 26.5 19H30C30.2761 19 30.5 18.7761 30.5 18.5V15C30.5 14.7239 30.2761 14.5 30 14.5Z" stroke="#6941C6" stroke-width="2"/>
  <path d="M27 16.5H29.5" stroke="#6941C6" stroke-width="1.5" stroke-linecap="round"/>
  <path d="M27 18H29.5" stroke="#6941C6" stroke-width="1.5" stroke-linecap="round"/>
</svg>
